<svg xmlns="http://www.w3.org/2000/svg" version="1.1" xmlns:xlink="http://www.w3.org/1999/xlink" xmlns:svgjs="http://svgjs.dev/svgjs" width="2000" height="712" viewBox="0 0 2000 712"><g transform="matrix(1,0,0,1,-1.2121212121213603,-1.4504643793483183)"><svg viewBox="0 0 396 141" data-background-color="#ffffff" preserveAspectRatio="xMidYMid meet" height="712" width="2000" xmlns="http://www.w3.org/2000/svg" xmlns:xlink="http://www.w3.org/1999/xlink"><g id="tight-bounds" transform="matrix(1,0,0,1,0.24000000000003752,0.28724083916870313)"><svg viewBox="0 0 395.5199999999999 140.42551832166257" height="140.42551832166257" width="395.5199999999999"><g><svg viewBox="0 0 395.52000000000004 140.4255183216626" height="140.42551832166257" width="395.5199999999999"><g transform="matrix(1,0,0,1,0,86.78860391518143)"><svg viewBox="0 0 395.52000000000004 53.63691440648116" height="53.63691440648116" width="395.52000000000004"><g id="textblocktransform"><svg viewBox="0 0 395.52000000000004 53.63691440648116" height="53.63691440648116" width="395.52000000000004" id="textblock"><g><svg viewBox="0 0 395.52000000000004 53.63691440648116" height="53.63691440648116" width="395.52000000000004"><g transform="matrix(1,0,0,1,0,0)"><svg width="395.52000000000004" viewBox="3.85 -38.05 283.88 38.5" height="53.63691440648116" data-palette-color="#214481"><path d="M34.35-34.6L39.2-34.6 39.2 0 34.65 0 34.65-25.8 23.15 0 19.95 0 8.4-25.85 8.4 0 3.85 0 3.85-34.6 8.75-34.6 21.55-6 34.35-34.6ZM71.9-14.75Q71.9-13.45 71.75-12L71.75-12 49.85-12Q50.1-7.95 52.62-5.68 55.15-3.4 58.75-3.4L58.75-3.4Q61.7-3.4 63.67-4.78 65.65-6.15 66.45-8.45L66.45-8.45 71.35-8.45Q70.25-4.5 66.95-2.02 63.65 0.45 58.75 0.45L58.75 0.45Q54.85 0.45 51.77-1.3 48.7-3.05 46.95-6.28 45.2-9.5 45.2-13.75L45.2-13.75Q45.2-18 46.9-21.2 48.6-24.4 51.67-26.13 54.75-27.85 58.75-27.85L58.75-27.85Q62.65-27.85 65.65-26.15 68.65-24.45 70.27-21.48 71.9-18.5 71.9-14.75L71.9-14.75ZM67.2-15.7Q67.2-18.3 66.05-20.18 64.9-22.05 62.92-23.03 60.95-24 58.55-24L58.55-24Q55.1-24 52.67-21.8 50.25-19.6 49.9-15.7L49.9-15.7 67.2-15.7ZM76.2-13.8Q76.2-18 77.9-21.18 79.6-24.35 82.57-26.1 85.55-27.85 89.25-27.85L89.25-27.85Q92.45-27.85 95.2-26.38 97.95-24.9 99.4-22.5L99.4-22.5 99.4-37 104-37 104 0 99.4 0 99.4-5.15Q98.05-2.7 95.4-1.13 92.75 0.45 89.2 0.45L89.2 0.45Q85.55 0.45 82.57-1.35 79.6-3.15 77.9-6.4 76.2-9.65 76.2-13.8L76.2-13.8ZM99.4-13.75Q99.4-16.85 98.15-19.15 96.9-21.45 94.77-22.68 92.65-23.9 90.1-23.9L90.1-23.9Q87.55-23.9 85.45-22.7 83.35-21.5 82.1-19.2 80.85-16.9 80.85-13.8L80.85-13.8Q80.85-10.65 82.1-8.33 83.35-6 85.45-4.78 87.55-3.55 90.1-3.55L90.1-3.55Q92.65-3.55 94.77-4.78 96.9-6 98.15-8.33 99.4-10.65 99.4-13.75L99.4-13.75ZM114.04-31.85Q112.74-31.85 111.84-32.75 110.94-33.65 110.94-34.95L110.94-34.95Q110.94-36.25 111.84-37.15 112.74-38.05 114.04-38.05L114.04-38.05Q115.29-38.05 116.17-37.15 117.04-36.25 117.04-34.95L117.04-34.95Q117.04-33.65 116.17-32.75 115.29-31.85 114.04-31.85L114.04-31.85ZM111.69-27.4L116.24-27.4 116.24 0 111.69 0 111.69-27.4ZM135.04 0.35Q131.59 0.35 128.87-0.88 126.14-2.1 124.59-4.28 123.04-6.45 122.99-9.3L122.99-9.3 127.84-9.3Q128.09-6.85 129.87-5.18 131.64-3.5 135.04-3.5L135.04-3.5Q138.29-3.5 140.17-5.13 142.04-6.75 142.04-9.3L142.04-9.3Q142.04-11.3 140.94-12.55 139.84-13.8 138.19-14.45 136.54-15.1 133.74-15.85L133.74-15.85Q130.29-16.75 128.22-17.65 126.14-18.55 124.67-20.48 123.19-22.4 123.19-25.65L123.19-25.65Q123.19-28.5 124.64-30.7 126.09-32.9 128.72-34.1 131.34-35.3 134.74-35.3L134.74-35.3Q139.64-35.3 142.77-32.85 145.89-30.4 146.29-26.35L146.29-26.35 141.29-26.35Q141.04-28.35 139.19-29.88 137.34-31.4 134.29-31.4L134.29-31.4Q131.44-31.4 129.64-29.93 127.84-28.45 127.84-25.8L127.84-25.8Q127.84-23.9 128.92-22.7 129.99-21.5 131.57-20.88 133.14-20.25 135.99-19.45L135.99-19.45Q139.44-18.5 141.54-17.57 143.64-16.65 145.14-14.73 146.64-12.8 146.64-9.5L146.64-9.5Q146.64-6.95 145.29-4.7 143.94-2.45 141.29-1.05 138.64 0.35 135.04 0.35L135.04 0.35ZM151.64-13.75Q151.64-18 153.34-21.18 155.04-24.35 158.06-26.1 161.09-27.85 164.99-27.85L164.99-27.85Q170.04-27.85 173.31-25.4 176.59-22.95 177.64-18.6L177.64-18.6 172.74-18.6Q172.04-21.1 170.01-22.55 167.99-24 164.99-24L164.99-24Q161.09-24 158.69-21.33 156.29-18.65 156.29-13.75L156.29-13.75Q156.29-8.8 158.69-6.1 161.09-3.4 164.99-3.4L164.99-3.4Q167.99-3.4 169.99-4.8 171.99-6.2 172.74-8.8L172.74-8.8 177.64-8.8Q176.54-4.6 173.24-2.08 169.94 0.45 164.99 0.45L164.99 0.45Q161.09 0.45 158.06-1.3 155.04-3.05 153.34-6.25 151.64-9.45 151.64-13.75L151.64-13.75ZM181.99-13.8Q181.99-18 183.69-21.18 185.39-24.35 188.36-26.1 191.34-27.85 194.99-27.85L194.99-27.85Q198.59-27.85 201.24-26.3 203.89-24.75 205.19-22.4L205.19-22.4 205.19-27.4 209.79-27.4 209.79 0 205.19 0 205.19-5.1Q203.84-2.7 201.16-1.13 198.49 0.45 194.94 0.45L194.94 0.45Q191.29 0.45 188.34-1.35 185.39-3.15 183.69-6.4 181.99-9.65 181.99-13.8L181.99-13.8ZM205.19-13.75Q205.19-16.85 203.94-19.15 202.69-21.45 200.56-22.68 198.44-23.9 195.89-23.9L195.89-23.9Q193.34-23.9 191.24-22.7 189.14-21.5 187.89-19.2 186.64-16.9 186.64-13.8L186.64-13.8Q186.64-10.65 187.89-8.33 189.14-6 191.24-4.78 193.34-3.55 195.89-3.55L195.89-3.55Q198.44-3.55 200.56-4.78 202.69-6 203.94-8.33 205.19-10.65 205.19-13.75L205.19-13.75ZM230.83-27.9Q235.83-27.9 238.93-24.88 242.03-21.85 242.03-16.15L242.03-16.15 242.03 0 237.53 0 237.53-15.5Q237.53-19.6 235.48-21.78 233.43-23.95 229.88-23.95L229.88-23.95Q226.28-23.95 224.16-21.7 222.03-19.45 222.03-15.15L222.03-15.15 222.03 0 217.48 0 217.48-27.4 222.03-27.4 222.03-23.5Q223.38-25.6 225.71-26.75 228.03-27.9 230.83-27.9L230.83-27.9ZM272.88 0L270.08-7.75 254.88-7.75 252.08 0 247.28 0 259.88-34.65 265.13-34.65 277.68 0 272.88 0ZM256.18-11.45L268.78-11.45 262.48-29.05 256.18-11.45ZM283.18-34.85L287.73-34.85 287.73 0 283.18 0 283.18-34.85Z" opacity="1" transform="matrix(1,0,0,1,0,0)" fill="#ffffff" class="wordmark-text-0" data-fill-palette-color="primary" id="text-0"></path></svg></g></svg></g></svg></g></svg></g><g transform="matrix(1,0,0,1,163.0110199418105,0)"><svg viewBox="0 0 69.49796011637902 74.12621570975698" height="74.12621570975698" width="69.49796011637902"><g><svg xmlns="http://www.w3.org/2000/svg" version="1.1" data-icon="brain" viewBox="0 0 15.001 16" x="0" y="0" height="74.12621570975698" width="69.49796011637902" class="icon-icon-0" data-fill-palette-color="accent" id="icon-0"><path d="M6 0C3.4 0 1.588 1.694 0.687 4.094 0.887 4.094 1 4.3 1 4.5 1 4.8 0.8 5 0.5 5H0.406C0.106 6 0 7 0 8S0.087 10.006 0.188 10.906C0.288 11.006 0.401 11 0.501 11 0.801 11 1.001 11.2 1.001 11.5S0.801 12 0.501 12C1.101 14.3 2.401 16 5.001 16 6.101 16 7.001 15.1 7.001 14V8H6.501C6.201 8 6.001 7.8 6.001 7.5S6.201 7 6.501 7H7.001V1C7.001 0.4 6.601 0 6.001 0zM9 0C8.4 0 8 0.4 8 1V7H8.5C8.8 7 9 7.2 9 7.5S8.8 8 8.5 8H8V14C8 15.1 8.9 16 10 16 12.6 16 13.9 14.3 14.5 12 14.2 12 14 11.8 14 11.5S14.2 11 14.5 11C14.6 11 14.713 11.006 14.813 10.906 14.913 10.006 15.001 9 15.001 8S14.895 5.9 14.595 5H14.501C14.201 5 14.001 4.8 14.001 4.5 14.001 4.3 14.114 4.094 14.314 4.094 13.414 1.694 11.601 0 9.001 0zM5.5 1C5.8 1 6 1.2 6 1.5S5.8 2 5.5 2C4.7 2 4 2.7 4 3.5 4 3.8 3.8 4 3.5 4S3 3.8 3 3.5C3 2.1 4.1 1 5.5 1M9.5 1C10.9 1 12 2.1 12 3.5 12 3.8 11.8 4 11.5 4S11 3.8 11 3.5C11 2.7 10.3 2 9.5 2 9.2 2 9 1.8 9 1.5S9.2 1 9.5 1M5.5 4C5.8 4 6 4.2 6 4.5 6 5.3 5.3 6 4.5 6S3 6.7 3 7.5C3 7.8 2.8 8 2.5 8S2 7.8 2 7.5C2 6.1 3.1 5 4.5 5 4.8 5 5 4.8 5 4.5S5.2 4 5.5 4M9.5 4C9.8 4 10 4.2 10 4.5S10.2 5 10.5 5C11.9 5 13 6.1 13 7.5 13 7.8 12.8 8 12.5 8S12 7.8 12 7.5C12 6.7 11.3 6 10.5 6S9 5.3 9 4.5C9 4.2 9.2 4 9.5 4M4.5 9C5.3 9 6 9.7 6 10.5S5.3 12 4.5 12C4.2 12 4 11.8 4 11.5S4.2 11 4.5 11 5 10.8 5 10.5 4.8 10 4.5 10 4 9.8 4 9.5 4.2 9 4.5 9M10.5 9C10.8 9 11 9.2 11 9.5S10.8 10 10.5 10 10 10.2 10 10.5 10.2 11 10.5 11 11 11.2 11 11.5 10.8 12 10.5 12C9.7 12 9 11.3 9 10.5S9.7 9 10.5 9M3.5 13C3.8 13 4 13.2 4 13.5S4.2 14 4.5 14 5 13.8 5 13.5 5.2 13 5.5 13 6 13.2 6 13.5C6 14.3 5.3 15 4.5 15S3 14.3 3 13.5C3 13.2 3.2 13 3.5 13M9.5 13C9.8 13 10 13.2 10 13.5S10.2 14 10.5 14 11 13.8 11 13.5 11.2 13 11.5 13 12 13.2 12 13.5C12 14.3 11.3 15 10.5 15S9 14.3 9 13.5C9 13.2 9.2 13 9.5 13" fill="#ffffff" data-fill-palette-color="accent"></path></svg></g></svg></g><g></g></svg></g><defs></defs></svg><rect width="395.5199999999999" height="140.42551832166257" fill="none" stroke="none" visibility="hidden"></rect></g></svg></g></svg>